<?xml version="1.0" encoding="UTF-8"?>
<svg id="Layer_1" data-name="Layer 1" xmlns="http://www.w3.org/2000/svg" viewBox="0 0 1921 321">
  <defs>
    <style>


      .cls-2 {
        fill: #fff;
        stroke-width: px;
      }
    </style>
  </defs>
  <rect class="cls-1" x=".5" y=".5" width="1920" height="320"/>
  <path class="cls-2" d="m.03,258.3c33.41-.35,58.46-16.1,72.82-45.19,16.99-34.4,30.77-70.38,46.14-105.59,16.26-37.23,37.74-70.25,74.81-90.23C212.7,7.1,233.07,2.02,254.37.22c8.07-.68,12.4,1.91,12.21,10.93-.37,17.3-.11,34.62-.11,53-43.13.13-66.54,25.81-82.89,63.5h48.2c0,19.83.5,38.41-.53,56.9-.16,2.79-7.31,7.12-11.47,7.42-14.49,1.06-29.11,1.09-43.65.7-17.93-.49-19.78.55-27.65,17.13-11.59,24.42-23.18,48.84-42.07,68.86-28.93,30.67-64.52,44.22-106.37,42.07v-62.44Z"/>
  <path class="cls-2" d="m1783.29,93.61c-14.86-11.63-22.24-26.68-21.13-45.4.79-13.51,6.4-25.04,16.35-34.24,21.57-19.94,54.39-17.68,73.29,3.14,20.2,22.25,17.35,58.06-7.87,76.47.58.43,1.1.84,1.65,1.2,11.35,7.49,22.71,14.98,34.09,22.43.96.63,1.35,1.29,1.33,2.44-.16,6.83-2.06,13.18-5.1,19.25-.54,1.07-1.3,1.2-2.32,1.19-9.73-.02-19.45.02-29.18-.05-1.6-.01-2.05.41-2.04,2.04.05,8.56.21,17.1,2.06,25.52,3.12,14.17,9.87,26.5,18.92,37.68,7.67,9.47,16.48,17.78,26.19,25.08,15.87,11.93,24.86,28.01,29.05,47.08,1.5,6.82,2.14,13.73,2.32,20.72.07,2.66-.91,4.61-2.79,6.28-4.11,3.66-9.11,5.6-14.23,7.27-9.79,3.2-19.91,4.83-30.1,6.05-26.13,3.13-52.38,3.28-78.64,2.78-16.42-.32-32.81-1.29-49.07-3.76-9.99-1.52-19.9-3.42-29.24-7.51-3.13-1.37-6.1-3.01-8.51-5.5-1.42-1.48-2.17-3.14-2.13-5.28.28-14.14,2.83-27.77,8.98-40.6,4.97-10.37,11.79-19.27,20.97-26.29,11.78-9.02,22.59-19.02,31.37-31.07,8.69-11.93,14.68-25.04,16.35-39.79.73-6.47.57-13.04.82-19.56.04-1.14-.72-1.11-1.49-1.11-4.46,0-8.93,0-13.39,0-5.47,0-10.95-.02-16.42.02-1.03,0-1.63-.3-2.12-1.25-3.03-5.84-4.75-12.03-5.13-18.6-.08-1.4.26-2.31,1.52-3.13,11.4-7.43,22.74-14.93,34.1-22.42.47-.31.94-.64,1.54-1.05Z"/>
  <g>
    <path class="cls-2" d="m585.3,87.3h56c6.13,0,11.87.97,17.2,2.9,5.33,1.93,9.97,4.6,13.9,8,3.93,3.4,7.03,7.37,9.3,11.9,2.27,4.53,3.4,9.4,3.4,14.6,0,7.6-1.83,13.97-5.5,19.1-3.67,5.13-8.23,9.03-13.7,11.7v1.6c7.33,2.67,13.23,6.83,17.7,12.5,4.47,5.67,6.7,12.7,6.7,21.1,0,6.13-1.23,11.63-3.7,16.5-2.47,4.87-5.83,9.03-10.1,12.5-4.27,3.47-9.23,6.13-14.9,8-5.67,1.87-11.77,2.8-18.3,2.8h-58V87.3Zm54,58.4c6.27,0,11.1-1.7,14.5-5.1s5.1-7.43,5.1-12.1-1.67-8.67-5-12c-3.33-3.33-7.93-5-13.8-5h-27.8v34.2h27Zm3,60c6.8,0,12-1.7,15.6-5.1s5.4-7.77,5.4-13.1-1.83-9.77-5.5-13.3c-3.67-3.53-9.1-5.3-16.3-5.3h-29.2v36.8h30Z"/>
    <path class="cls-2" d="m707.9,132.5h24.6v13.6h1.6c1.2-2.4,2.8-4.6,4.8-6.6s4.23-3.74,6.7-5.23c2.47-1.48,5.13-2.68,8-3.6,2.87-.91,5.7-1.37,8.5-1.37,3.47,0,6.43.37,8.9,1.11,2.47.74,4.57,1.7,6.3,2.89l-7,23.4c-1.6-.8-3.37-1.43-5.3-1.9-1.93-.47-4.3-.7-7.1-.7-3.6,0-6.87.71-9.8,2.11-2.93,1.41-5.43,3.38-7.5,5.93-2.07,2.55-3.67,5.53-4.8,8.95-1.13,3.42-1.7,7.14-1.7,11.16v48.25h-26.2v-98Z"/>
    <path class="cls-2" d="m829.7,129.3c7.6,0,14.57,1.3,20.9,3.9,6.33,2.6,11.8,6.2,16.4,10.8,4.6,4.6,8.2,10.1,10.8,16.5,2.6,6.4,3.9,13.4,3.9,21s-1.3,14.6-3.9,21c-2.6,6.4-6.2,11.9-10.8,16.5-4.6,4.6-10.07,8.2-16.4,10.8-6.33,2.6-13.3,3.9-20.9,3.9s-14.57-1.3-20.9-3.9c-6.33-2.6-11.8-6.2-16.4-10.8-4.6-4.6-8.2-10.1-10.8-16.5s-3.9-13.4-3.9-21,1.3-14.6,3.9-21,6.2-11.9,10.8-16.5c4.6-4.6,10.07-8.2,16.4-10.8,6.33-2.6,13.3-3.9,20.9-3.9Zm0,80.2c3.33,0,6.57-.63,9.7-1.9,3.13-1.27,5.9-3.1,8.3-5.5,2.4-2.4,4.3-5.33,5.7-8.8,1.4-3.47,2.1-7.4,2.1-11.8s-.7-8.33-2.1-11.8c-1.4-3.47-3.3-6.4-5.7-8.8-2.4-2.4-5.17-4.23-8.3-5.5-3.13-1.27-6.37-1.9-9.7-1.9s-6.73.63-9.8,1.9c-3.07,1.27-5.8,3.1-8.2,5.5-2.4,2.4-4.3,5.33-5.7,8.8-1.4,3.47-2.1,7.4-2.1,11.8s.7,8.33,2.1,11.8c1.4,3.47,3.3,6.4,5.7,8.8,2.4,2.4,5.13,4.23,8.2,5.5,3.07,1.27,6.33,1.9,9.8,1.9Z"/>
    <path class="cls-2" d="m886.1,132.5h29.4l16.2,61.4h1.4l19.4-61.4h27l19.6,61.4h1.4l16-61.4h29l-31.4,98h-28.2l-19.6-61.8h-1.4l-19.6,61.8h-27.8l-31.4-98Z"/>
    <path class="cls-2" d="m1096.3,233.7c-6.4,0-12.1-.8-17.1-2.4-5-1.6-9.33-3.7-13-6.3-3.67-2.6-6.77-5.6-9.3-9-2.53-3.4-4.47-6.83-5.8-10.3l23.4-10c2.27,5.07,5.3,8.83,9.1,11.3,3.8,2.47,8.03,3.7,12.7,3.7s8.6-.87,11.4-2.6c2.8-1.73,4.2-3.8,4.2-6.2,0-2.67-1.17-4.83-3.5-6.5-2.33-1.67-6.37-3.17-12.1-4.5l-13.8-3c-3.07-.67-6.23-1.73-9.5-3.2-3.27-1.47-6.23-3.33-8.9-5.6-2.67-2.27-4.87-5-6.6-8.2-1.73-3.2-2.6-6.93-2.6-11.2,0-4.8,1.03-9.07,3.1-12.8,2.07-3.73,4.9-6.9,8.5-9.5,3.6-2.6,7.83-4.6,12.7-6,4.87-1.4,10.1-2.1,15.7-2.1,9.33,0,17.67,1.83,25,5.5,7.33,3.67,12.73,9.5,16.2,17.5l-22.6,9.2c-1.87-3.87-4.6-6.67-8.2-8.4-3.6-1.73-7.2-2.6-10.8-2.6s-7,.77-9.8,2.3c-2.8,1.53-4.2,3.5-4.2,5.9,0,2.27,1.17,4.07,3.5,5.4,2.33,1.33,5.5,2.53,9.5,3.6l15,3.6c10,2.4,17.43,6.23,22.3,11.5,4.87,5.27,7.3,11.5,7.3,18.7,0,4.27-1,8.33-3,12.2-2,3.87-4.83,7.3-8.5,10.3-3.67,3-8.07,5.37-13.2,7.1-5.13,1.73-10.83,2.6-17.1,2.6Z"/>
    <path class="cls-2" d="m1247.9,206.9c-4.53,8-10.63,14.47-18.3,19.4-7.67,4.93-17.03,7.4-28.1,7.4-7.47,0-14.37-1.3-20.7-3.9-6.33-2.6-11.83-6.23-16.5-10.9-4.67-4.67-8.3-10.17-10.9-16.5-2.6-6.33-3.9-13.3-3.9-20.9,0-7.07,1.27-13.77,3.8-20.1,2.53-6.33,6.07-11.87,10.6-16.6,4.53-4.73,9.9-8.5,16.1-11.3,6.2-2.8,13.03-4.2,20.5-4.2,7.87,0,14.87,1.3,21,3.9,6.13,2.6,11.27,6.2,15.4,10.8,4.13,4.6,7.27,10.03,9.4,16.3,2.13,6.27,3.2,13.07,3.2,20.4v2.4c-.13.8-.2,1.53-.2,2.2-.13.67-.2,1.4-.2,2.2h-73.8c.53,4,1.63,7.43,3.3,10.3,1.67,2.87,3.73,5.27,6.2,7.2,2.46,1.93,5.17,3.33,8.1,4.2,2.93.87,5.93,1.3,9,1.3,6,0,10.97-1.37,14.9-4.1,3.93-2.73,7.03-6.17,9.3-10.3l21.8,10.8Zm-23.8-38c-.13-1.73-.7-3.67-1.7-5.8-1-2.13-2.47-4.13-4.4-6-1.93-1.87-4.33-3.4-7.2-4.6-2.87-1.2-6.3-1.8-10.3-1.8-5.6,0-10.53,1.6-14.8,4.8-4.27,3.2-7.27,7.67-9,13.4h47.4Z"/>
    <path class="cls-2" d="m1266.3,132.5h24.6v13.6h1.6c1.2-2.4,2.8-4.6,4.8-6.6s4.23-3.74,6.7-5.23c2.46-1.48,5.13-2.68,8-3.6,2.87-.91,5.7-1.37,8.5-1.37,3.46,0,6.43.37,8.9,1.11,2.47.74,4.57,1.7,6.3,2.89l-7,23.4c-1.6-.8-3.37-1.43-5.3-1.9-1.93-.47-4.3-.7-7.1-.7-3.6,0-6.87.71-9.8,2.11-2.93,1.41-5.43,3.38-7.5,5.93-2.07,2.55-3.67,5.53-4.8,8.95-1.13,3.42-1.7,7.14-1.7,11.16v48.25h-26.2v-98Z"/>
  </g>
</svg>