<?xml version="1.0" encoding="UTF-8"?>
<svg id="Layer_1" data-name="Layer 1" xmlns="http://www.w3.org/2000/svg" viewBox="0 0 1921.21 322.13">
  <defs>
    <style>


      .cls-2 {
        fill: #fff;
        stroke-width: 0px;
      }
    </style>
  </defs>
  <rect class="cls-1" x=".71" y="1.56" width="1920" height="320"/>
  <g>
    <path class="cls-2" d="m770.61,154.06h70.2c.4,1.6.73,3.53,1,5.8.27,2.27.4,4.53.4,6.8,0,9.2-1.4,17.87-4.2,26-2.8,8.13-7.2,15.4-13.2,21.8-6.4,6.8-14.07,12.07-23,15.8-8.93,3.73-19.13,5.6-30.6,5.6-10.4,0-20.2-1.87-29.4-5.6-9.2-3.73-17.2-8.93-24-15.6-6.8-6.67-12.2-14.57-16.2-23.7-4-9.13-6-19.1-6-29.9s2-20.77,6-29.9c4-9.13,9.4-17.03,16.2-23.7,6.8-6.67,14.8-11.87,24-15.6,9.2-3.73,19-5.6,29.4-5.6,11.6,0,21.97,2,31.1,6,9.13,4,16.97,9.53,23.5,16.6l-18.6,18.2c-4.67-4.93-9.87-8.7-15.6-11.3-5.73-2.6-12.6-3.9-20.6-3.9-6.53,0-12.73,1.17-18.6,3.5-5.87,2.33-11,5.63-15.4,9.9-4.4,4.27-7.9,9.43-10.5,15.5-2.6,6.07-3.9,12.83-3.9,20.3s1.3,14.23,3.9,20.3c2.6,6.07,6.13,11.23,10.6,15.5,4.47,4.27,9.63,7.57,15.5,9.9,5.87,2.33,12.13,3.5,18.8,3.5,7.6,0,14.03-1.1,19.3-3.3,5.27-2.2,9.77-5.03,13.5-8.5,2.67-2.4,4.97-5.43,6.9-9.1,1.93-3.67,3.43-7.77,4.5-12.3h-45v-23Z"/>
    <path class="cls-2" d="m953.21,209.06c-4.54,8-10.63,14.47-18.3,19.4-7.67,4.93-17.03,7.4-28.1,7.4-7.47,0-14.37-1.3-20.7-3.9-6.33-2.6-11.83-6.23-16.5-10.9-4.67-4.67-8.3-10.17-10.9-16.5-2.6-6.33-3.9-13.3-3.9-20.9,0-7.07,1.27-13.77,3.8-20.1,2.53-6.33,6.07-11.87,10.6-16.6,4.53-4.73,9.9-8.5,16.1-11.3,6.2-2.8,13.03-4.2,20.5-4.2,7.87,0,14.87,1.3,21,3.9,6.13,2.6,11.27,6.2,15.4,10.8,4.13,4.6,7.27,10.03,9.4,16.3,2.13,6.27,3.2,13.07,3.2,20.4v2.4c-.13.8-.2,1.53-.2,2.2-.13.67-.2,1.4-.2,2.2h-73.8c.53,4,1.63,7.43,3.3,10.3,1.67,2.87,3.73,5.27,6.2,7.2,2.47,1.93,5.17,3.33,8.1,4.2,2.93.87,5.93,1.3,9,1.3,6,0,10.97-1.37,14.9-4.1,3.93-2.73,7.03-6.17,9.3-10.3l21.8,10.8Zm-23.8-38c-.13-1.73-.7-3.67-1.7-5.8-1-2.13-2.47-4.13-4.4-6-1.93-1.87-4.33-3.4-7.2-4.6-2.87-1.2-6.3-1.8-10.3-1.8-5.6,0-10.53,1.6-14.8,4.8-4.27,3.2-7.27,7.67-9,13.4h47.4Z"/>
    <path class="cls-2" d="m996.21,147.46h1.6c3.07-4.93,7.2-8.83,12.4-11.7,5.2-2.87,11.13-4.3,17.8-4.3,6.13,0,11.53,1,16.2,3,4.67,2,8.5,4.83,11.5,8.5,3,3.67,5.27,8.07,6.8,13.2,1.53,5.13,2.3,10.83,2.3,17.1v59.4h-26.2v-56.2c0-7.07-1.57-12.3-4.7-15.7-3.13-3.4-7.7-5.1-13.7-5.1-3.6,0-6.77.77-9.5,2.3-2.73,1.53-5.07,3.6-7,6.2-1.93,2.6-3.4,5.67-4.4,9.2-1,3.53-1.5,7.3-1.5,11.3v48h-26.2v-98h24.6v12.8Z"/>
    <path class="cls-2" d="m1168.41,183.26c-5.2,0-10.27-1.06-15.2-3.18-4.93-2.12-9.33-5.13-13.2-9.04-3.87-3.91-6.97-8.54-9.3-13.91-2.33-5.36-3.5-11.29-3.5-17.78s1.33-13.01,4-18.77c2.67-5.76,6.23-10.7,10.7-14.8,4.47-4.11,9.6-7.32,15.4-9.63,5.8-2.32,11.9-3.48,18.3-3.48,7.33,0,14.03,1.29,20.1,3.88,6.07,2.59,11.27,6.03,15.6,10.34,4.33,4.31,7.67,9.35,10,15.12,2.33,5.77,3.5,11.83,3.5,18.2,0,9.15-1.83,17.53-5.5,25.16-3.67,7.62-8.3,15.42-13.9,23.37l-33.2,47.14-20.2-13.75,28-39.65-1-1.2c-3.07,1.33-6.6,2-10.6,2Zm7.6-66.4c-3.07,0-5.97.53-8.7,1.58-2.73,1.05-5.17,2.57-7.3,4.54-2.13,1.98-3.83,4.31-5.1,7.01-1.27,2.7-1.9,5.69-1.9,8.97s.63,6.48,1.9,9.18c1.27,2.7,2.97,5.03,5.1,7.01,2.13,1.98,4.57,3.49,7.3,4.54,2.73,1.05,5.63,1.58,8.7,1.58s5.8-.52,8.6-1.58c2.8-1.05,5.3-2.56,7.5-4.54,2.2-1.98,3.93-4.31,5.2-7.01,1.27-2.7,1.9-5.76,1.9-9.18s-.63-6.28-1.9-8.97c-1.27-2.7-3-5.03-5.2-7.01-2.2-1.98-4.7-3.49-7.5-4.54-2.8-1.05-5.67-1.58-8.6-1.58Z"/>
  </g>
  <g>
    <polygon class="cls-2" points="78.91 .24 312.62 321.88 243.48 321.88 9.78 .24 78.91 .24"/>
    <polygon class="cls-2" points="303.08 .24 225.5 106.84 191 59.31 233.96 .24 303.08 .24"/>
    <polygon class="cls-2" points="87.36 202.14 121.86 249.66 69.38 321.88 .25 321.88 87.36 202.14"/>
  </g>
  <g>
    <path class="cls-2" d="m1711.27,219.25c5.68,7.71,11.07,14.54,15.93,21.73,14.15,20.95,34.7,30.04,59.12,32.17,15.87,1.38,31.63,1.58,46.88-4.18,19.43-7.35,29.47-20.71,28.75-39.53-.49-12.95-5.12-23.72-18.03-29.49-13.27-5.93-26.39-12.19-40.04-18.53,3.95-5.69,8.29-12.02,12.73-18.29,4.51-6.38,9.19-12.64,13.65-19.05,2.41-3.45,5.42-5.12,9.58-3.93,18.13,5.21,36.26,10.58,51.33,22.56,18.99,15.09,30.07,34.02,28.97,59.1-.53,12.22.35,24.65-3.98,36.27-10.91,29.27-32.69,46.87-62.27,55.52-22.23,6.5-45.05,9.23-68.1,7.43-26.98-2.11-53.12-7.76-75.85-23.71-11.27-7.91-20.09-18.02-26.21-30.3-1.04-2.08-1.53-5.69-.42-7.37,8.92-13.42,18.28-26.54,27.95-40.39Z"/>
    <path class="cls-2" d="m1869.72,88.61c-6.26-6.88-11.89-13.46-17.94-19.64-11.94-12.21-26.73-18.08-43.72-19.46-14.26-1.16-28.47-1.78-42.52,1.24-25.61,5.52-38.05,33.99-23.64,54.82,3.37,4.87,8.81,8.7,14.01,11.82,6.34,3.8,13.43,6.36,20.46,9.57-.27.73-.38,1.42-.74,1.93-8.5,12.01-17.07,23.98-25.53,36.02-2.32,3.3-5.42,4.08-8.88,2.86-28.92-10.13-51.49-26.79-60.35-57.79-11.25-39.38,9.29-81.76,47.21-97.51,17.82-7.4,36.21-10.96,55.51-10.92,19.25.04,38.5-.01,57.15,5.45,21.28,6.23,39.8,16.83,53.37,34.96,3.4,4.54,3.63,8.2.16,12.81-8.21,10.89-16.05,22.07-24.55,33.84Z"/>
  </g>
</svg>