<?xml version="1.0" encoding="UTF-8"?>
<svg id="Layer_2" data-name="Layer 2" xmlns="http://www.w3.org/2000/svg" xmlns:xlink="http://www.w3.org/1999/xlink" viewBox="0 0 1920.25 363.25">
  <defs>
    <style>
      .cls-1 {
        stroke: #000;
        stroke-width: .3px;
      }

      .cls-1, .cls-2 {
        fill: #fff;
      }

      .cls-3, .cls-4, .cls-2 {
        stroke-width: 0px;
      }

      .cls-4 {
        fill: none;
      }

      .cls-5 {
        clip-path: url(#clippath-1);
      }
    </style>
    <clipPath id="clippath-1">
      <rect class="cls-4" x="1602.25" y="42" width="318" height="318"/>
    </clipPath>
  </defs>
  <g>
    <rect class="cls-3" x=".75" y="42.5" width="1919" height="319"/>
    <path class="cls-3" d="m1919.25,43v318H1.25V43h1918m1-1H.25v320h1920V42h0Z"/>
  </g>
  <g>
    <polygon class="cls-2" points=".25 363 87.37 243.26 121.87 290.78 69.38 363 .25 363"/>
    <polygon class="cls-2" points="312.61 363 243.49 363 9.78 41.37 78.91 41.37 312.61 363"/>
    <polygon class="cls-2" points="233.95 41.37 303.09 41.37 225.49 147.95 190.99 100.43 233.95 41.37"/>
  </g>
  <g>
    <path class="cls-2" d="m770.35,174.07h70.2c.4,1.6.73,3.53,1,5.8.27,2.27.4,4.53.4,6.8,0,9.2-1.4,17.87-4.2,26-2.8,8.13-7.2,15.4-13.2,21.8-6.4,6.8-14.07,12.07-23,15.8-8.93,3.73-19.13,5.6-30.6,5.6-10.4,0-20.2-1.87-29.4-5.6-9.2-3.73-17.2-8.93-24-15.6-6.8-6.67-12.2-14.56-16.2-23.7-4-9.13-6-19.1-6-29.9s2-20.77,6-29.9c4-9.13,9.4-17.03,16.2-23.7,6.8-6.67,14.8-11.87,24-15.6,9.2-3.73,19-5.6,29.4-5.6,11.6,0,21.97,2,31.1,6,9.13,4,16.97,9.53,23.5,16.6l-18.6,18.2c-4.67-4.93-9.87-8.7-15.6-11.3-5.73-2.6-12.6-3.9-20.6-3.9-6.53,0-12.73,1.17-18.6,3.5-5.87,2.33-11,5.63-15.4,9.9-4.4,4.27-7.9,9.43-10.5,15.5-2.6,6.07-3.9,12.83-3.9,20.3s1.3,14.23,3.9,20.3c2.6,6.07,6.13,11.23,10.6,15.5,4.47,4.27,9.63,7.57,15.5,9.9,5.87,2.33,12.13,3.5,18.8,3.5,7.6,0,14.03-1.1,19.3-3.3,5.27-2.2,9.77-5.03,13.5-8.5,2.67-2.4,4.97-5.43,6.9-9.1,1.93-3.67,3.43-7.77,4.5-12.3h-45v-23Z"/>
    <path class="cls-2" d="m952.95,229.07c-4.54,8-10.63,14.47-18.3,19.4-7.67,4.93-17.03,7.4-28.1,7.4-7.47,0-14.37-1.3-20.7-3.9-6.33-2.6-11.83-6.23-16.5-10.9-4.67-4.67-8.3-10.17-10.9-16.5-2.6-6.33-3.9-13.3-3.9-20.9,0-7.06,1.27-13.77,3.8-20.1,2.53-6.33,6.07-11.87,10.6-16.6,4.53-4.73,9.9-8.5,16.1-11.3,6.2-2.8,13.03-4.2,20.5-4.2,7.87,0,14.87,1.3,21,3.9,6.13,2.6,11.27,6.2,15.4,10.8,4.13,4.6,7.27,10.03,9.4,16.3,2.13,6.27,3.2,13.07,3.2,20.4v2.4c-.13.8-.2,1.53-.2,2.2-.13.67-.2,1.4-.2,2.2h-73.8c.53,4,1.63,7.44,3.3,10.3,1.67,2.87,3.73,5.27,6.2,7.2,2.47,1.94,5.17,3.33,8.1,4.2,2.93.87,5.93,1.3,9,1.3,6,0,10.97-1.37,14.9-4.1,3.93-2.73,7.03-6.17,9.3-10.3l21.8,10.8Zm-23.8-38c-.13-1.73-.7-3.67-1.7-5.8-1-2.13-2.47-4.13-4.4-6-1.93-1.87-4.33-3.4-7.2-4.6-2.87-1.2-6.3-1.8-10.3-1.8-5.6,0-10.53,1.6-14.8,4.8-4.27,3.2-7.27,7.67-9,13.4h47.4Z"/>
    <path class="cls-2" d="m995.95,167.47h1.6c3.07-4.93,7.2-8.83,12.4-11.7,5.2-2.87,11.13-4.3,17.8-4.3,6.13,0,11.53,1,16.2,3,4.67,2,8.5,4.83,11.5,8.5,3,3.67,5.27,8.07,6.8,13.2,1.53,5.13,2.3,10.83,2.3,17.1v59.4h-26.2v-56.2c0-7.07-1.57-12.3-4.7-15.7-3.13-3.4-7.7-5.1-13.7-5.1-3.6,0-6.77.77-9.5,2.3-2.73,1.53-5.07,3.6-7,6.2-1.93,2.6-3.4,5.67-4.4,9.2-1,3.53-1.5,7.3-1.5,11.3v48h-26.2v-98h24.6v12.8Z"/>
    <path class="cls-2" d="m1168.15,203.27c-5.2,0-10.27-1.06-15.2-3.18-4.93-2.12-9.33-5.13-13.2-9.04-3.87-3.91-6.97-8.54-9.3-13.91-2.33-5.36-3.5-11.29-3.5-17.78s1.33-13.01,4-18.77c2.67-5.76,6.23-10.7,10.7-14.8,4.47-4.11,9.6-7.32,15.4-9.63,5.8-2.32,11.9-3.48,18.3-3.48,7.33,0,14.03,1.29,20.1,3.88,6.07,2.59,11.27,6.03,15.6,10.34,4.33,4.31,7.67,9.35,10,15.12,2.33,5.77,3.5,11.83,3.5,18.2,0,9.15-1.83,17.53-5.5,25.16-3.67,7.62-8.3,15.42-13.9,23.37l-33.2,47.14-20.2-13.75,28-39.65-1-1.2c-3.07,1.33-6.6,2-10.6,2Zm7.6-66.4c-3.07,0-5.97.53-8.7,1.58-2.73,1.05-5.17,2.57-7.3,4.54-2.13,1.98-3.83,4.31-5.1,7.01-1.27,2.7-1.9,5.69-1.9,8.97s.63,6.48,1.9,9.18c1.27,2.7,2.97,5.03,5.1,7.01,2.13,1.98,4.57,3.49,7.3,4.54,2.73,1.05,5.63,1.58,8.7,1.58s5.8-.52,8.6-1.58c2.8-1.05,5.3-2.56,7.5-4.54,2.2-1.98,3.93-4.31,5.2-7.01,1.27-2.7,1.9-5.76,1.9-9.18s-.63-6.28-1.9-8.97c-1.27-2.7-3-5.03-5.2-7.01-2.2-1.98-4.7-3.49-7.5-4.54-2.8-1.05-5.67-1.58-8.6-1.58Z"/>
  </g>
  <g class="cls-5">
    <g>
      <path class="cls-2" d="m1689.24,257.3c6.52,8.95,12.26,17.52,18.71,25.52,11.16,13.86,26.15,21.17,43.56,23.66,17.48,2.5,34.82,3.37,51.9-3.1,23.24-8.81,30.42-27.96,23.72-49.42-1.51-4.84-5.43-10.16-9.74-12.66-10.52-6.09-21.89-10.73-32.99-15.81-2.82-1.29-5.88-2.05-9.67-3.34,6.21-8.79,11.98-17.01,17.8-25.2,2.94-4.13,5.78-8.35,9.05-12.22,1.15-1.35,3.71-2.82,5.14-2.43,21.76,5.88,43.23,12.64,59.24,29.79,11.48,12.3,18.29,26.63,18.15,43.98-.13,15.9.23,31.51-7.63,46.37-12.6,23.83-32.85,37.39-57.89,43.85-33.58,8.66-67.56,8.63-100.83-1.67-23.47-7.26-43.06-20.52-54.78-43.14-.9-1.73-1.43-4.79-.51-6.13,8.66-12.73,17.66-25.23,26.77-38.08Z"/>
      <path class="cls-2" d="m1836.79,134.42c-5.72-6.47-10.61-12.28-15.81-17.79-11.47-12.16-26.16-17.83-42.38-19.11-10.87-.86-22.01-1.24-32.75.19-10.65,1.42-20.94,5.57-27.69,14.98-9.83,13.72-7.93,38.88,10.94,48.24,6.96,3.45,14.11,6.52,21.39,9.87-8.68,12.31-17.17,24.61-26.06,36.6-1.06,1.44-4.64,2.3-6.48,1.69-30-10.02-55.22-29.55-59.61-66.54-3.67-30.94,12.67-63.19,40.4-76.82,17.43-8.57,35.6-12.96,55.01-13.03,20.35-.07,40.61-.24,60.26,6.39,18.71,6.31,34.69,16.26,46.4,32.53,2.67,3.71,2.61,6.46-.17,10.17-7.97,10.62-15.53,21.55-23.44,32.62Z"/>
    </g>
  </g>
  <rect class="cls-4" x="64.33" y="80" width="204" height="242"/>
  <rect class="cls-4" x="115.25" y="71" width="110" height="110"/>
  <g>
    <line class="cls-1" x1="1393.25" x2="1393.25" y2="36"/>
    <line class="cls-1" x1="1339.25" y1="54" x2="1375.25" y2="54"/>
    <line class="cls-1" x1="1339.25" y1="305.65" x2="1375.25" y2="305.65"/>
    <line class="cls-1" x1="1393.25" y1="359.65" x2="1393.25" y2="323.65"/>
    <line class="cls-1" x1="1644.9" x2="1644.9" y2="36"/>
    <line class="cls-1" x1="1698.9" y1="54" x2="1662.9" y2="54"/>
    <line class="cls-1" x1="1644.9" y1="359.65" x2="1644.9" y2="323.65"/>
  </g>
</svg>