<?xml version="1.0" encoding="UTF-8"?>
<svg id="Layer_2" data-name="Layer 2" xmlns="http://www.w3.org/2000/svg" viewBox="0 0 1920 362">
  <defs>
    <style>
      .cls-1, .cls-2, .cls-3 {
        stroke-width: 0px;
      }

      .cls-2, .cls-4 {
        fill: none;
      }

      .cls-5 {
        letter-spacing: 0em;
      }

      .cls-3, .cls-6 {
        fill: #fff;
      }

      .cls-7 {
        letter-spacing: 0em;
      }

      .cls-4 {
        stroke: #000;
        stroke-width: .3px;
      }

      .cls-6 {
        font-family: ProductSans-Bold, 'Product Sans';
        font-size: 200px;
        font-weight: 700;
      }
    </style>
  </defs>
  <g>
    <rect class="cls-1" x=".5" y="42.5" width="1919" height="319"/>
    <path class="cls-1" d="m1919,43v318H1V43h1918m1-1H0v320h1920V42h0Z"/>
  </g>
  <text class="cls-6" transform="translate(687.7 252.67)"><tspan x="0" y="0">M</tspan><tspan class="cls-5" x="171.4" y="0">ob</tspan><tspan x="404.6" y="0">i</tspan><tspan class="cls-5" x="456.4" y="0">l</tspan><tspan class="cls-7" x="504" y="0">e</tspan></text>
  <rect class="cls-2" x="64.08" y="80" width="204" height="242"/>
  <rect class="cls-2" x="115" y="71" width="110" height="110"/>
  <g>
    <line class="cls-4" x1="1393" x2="1393" y2="36"/>
    <line class="cls-4" x1="1339" y1="54" x2="1375" y2="54"/>
    <line class="cls-4" x1="1339" y1="305.65" x2="1375" y2="305.65"/>
    <line class="cls-4" x1="1393" y1="359.65" x2="1393" y2="323.65"/>
    <line class="cls-4" x1="1644.65" x2="1644.65" y2="36"/>
    <line class="cls-4" x1="1698.65" y1="54" x2="1662.65" y2="54"/>
    <line class="cls-4" x1="1698.65" y1="305.65" x2="1662.65" y2="305.65"/>
    <line class="cls-4" x1="1644.65" y1="359.65" x2="1644.65" y2="323.65"/>
  </g>
  <g>
    <path class="cls-3" d="m1676.58,147.35c-5.35,0-9.89,1.86-13.62,5.59-3.73,3.73-5.6,8.21-5.6,13.43v80.21c0,5.35,1.86,9.89,5.6,13.62,3.73,3.73,8.27,5.6,13.62,5.6s9.85-1.86,13.53-5.6c3.66-3.73,5.5-8.26,5.5-13.62v-80.21c0-5.22-1.86-9.7-5.6-13.43s-8.21-5.59-13.43-5.59Z"/>
    <path class="cls-3" d="m1831.03,75.34l13.24-24.43c.87-1.62.56-2.86-.93-3.73-1.62-.75-2.86-.37-3.73,1.12l-13.43,24.63c-11.82-5.22-24.31-7.84-37.49-7.84s-25.68,2.62-37.49,7.84l-13.43-24.63c-.87-1.49-2.12-1.86-3.73-1.12-1.49.88-1.8,2.11-.93,3.73l13.24,24.43c-13.43,6.85-24.13,16.39-32.08,28.63-7.96,12.25-11.94,25.65-11.94,40.2h172.53c0-14.55-3.98-27.94-11.94-40.2-7.96-12.25-18.59-21.79-31.9-28.63Zm-76.57,35.54c-1.43,1.44-3.14,2.15-5.13,2.15s-3.67-.71-5.04-2.15c-1.37-1.43-2.05-3.13-2.05-5.13s.68-3.7,2.05-5.13c1.37-1.43,3.05-2.14,5.04-2.14s3.7.71,5.13,2.14c1.43,1.44,2.15,3.14,2.15,5.13,0,1.99-.72,3.7-2.15,5.13Zm78.62,0c-1.37,1.44-3.05,2.15-5.03,2.15s-3.7-.71-5.13-2.15c-1.43-1.43-2.15-3.13-2.15-5.13s.71-3.7,2.15-5.13c1.43-1.43,3.14-2.14,5.13-2.14s3.66.71,5.03,2.14c1.37,1.44,2.05,3.14,2.05,5.13s-.68,3.7-2.05,5.13Z"/>
    <path class="cls-3" d="m1703.07,275.12c0,5.73,1.99,10.57,5.97,14.55,3.98,3.98,8.83,5.97,14.55,5.97h13.8l.19,42.35c0,5.35,1.86,9.89,5.59,13.62s8.21,5.6,13.43,5.6,9.88-1.86,13.62-5.6c3.73-3.73,5.6-8.27,5.6-13.62v-42.34h25.74v42.34c0,5.35,1.86,9.89,5.59,13.62s8.27,5.6,13.62,5.6,9.88-1.86,13.62-5.6,5.59-8.27,5.59-13.62v-42.34h13.99c5.59,0,10.38-1.99,14.36-5.97,3.98-3.98,5.97-8.82,5.97-14.55v-124.23h-171.22v124.23Z"/>
    <path class="cls-3" d="m1900.79,147.35c-5.22,0-9.7,1.84-13.43,5.5-3.73,3.67-5.59,8.18-5.59,13.52v80.21c0,5.35,1.86,9.89,5.59,13.62s8.21,5.6,13.43,5.6,9.88-1.86,13.62-5.6,5.59-8.26,5.59-13.62v-80.21c0-5.34-1.86-9.85-5.59-13.52-3.73-3.66-8.27-5.5-13.62-5.5Z"/>
  </g>
  <path class="cls-3" d="m263.89,291.38c-4.84,11.18-10.57,21.47-17.2,30.93-9.05,12.9-16.45,21.83-22.16,26.78-8.85,8.14-18.33,12.31-28.48,12.54-7.29,0-16.08-2.07-26.31-6.28-10.27-4.19-19.7-6.26-28.33-6.26s-18.75,2.07-29.13,6.26c-10.39,4.21-18.77,6.4-25.17,6.62-9.74.41-19.44-3.87-29.13-12.88-6.18-5.39-13.92-14.64-23.18-27.73-9.94-13.98-18.11-30.2-24.51-48.69C3.44,252.7,0,233.36,0,214.64c0-21.45,4.63-39.94,13.92-55.44,7.29-12.45,17-22.27,29.14-29.48,12.15-7.21,25.27-10.88,39.4-11.12,7.73,0,17.87,2.39,30.48,7.09,12.57,4.72,20.64,7.11,24.17,7.11,2.64,0,11.61-2.8,26.8-8.37,14.37-5.17,26.5-7.31,36.43-6.47,26.92,2.17,47.15,12.79,60.6,31.91-24.08,14.59-35.99,35.02-35.75,61.24.22,20.42,7.62,37.41,22.18,50.9,6.6,6.26,13.97,11.1,22.16,14.54-1.78,5.16-3.65,10.09-5.65,14.83h0Zm-61.75-242.98c0,16-5.85,30.95-17.5,44.78-14.06,16.44-31.07,25.94-49.52,24.44-.24-1.92-.37-3.94-.37-6.06,0-15.36,6.69-31.81,18.57-45.25,5.93-6.81,13.47-12.47,22.62-16.98,9.13-4.45,17.76-6.91,25.88-7.33.24,2.14.34,4.28.34,6.4h0Z"/>
</svg>