<?xml version="1.0" encoding="UTF-8"?>
<svg id="Layer_1" data-name="Layer 1" xmlns="http://www.w3.org/2000/svg" viewBox="0 0 1921 321">
  <defs>
    <style>


      .cls-2 {
        isolation: isolate;
        opacity: .99;
      }

      .cls-2, .cls-3 {
        fill: #fff;
        stroke-width: 0px;
      }
    </style>
  </defs>
  <rect class="cls-1" x=".5" y=".5" width="1920" height="320"/>
  <g>
    <path class="cls-3" d="m662.4,87.6h26.6l43.8,75.8h1.6l43.8-75.8h26.8v143.2h-26.8v-70.6l1.6-24h-1.6l-36.4,64.2h-16.2l-36.6-64.2h-1.6l1.6,24v70.6h-26.6V87.6Z"/>
    <path class="cls-3" d="m877,129.6c7.6,0,14.57,1.3,20.9,3.9,6.33,2.6,11.8,6.2,16.4,10.8s8.2,10.1,10.8,16.5c2.6,6.4,3.9,13.4,3.9,21s-1.3,14.6-3.9,21c-2.6,6.4-6.2,11.9-10.8,16.5-4.6,4.6-10.07,8.2-16.4,10.8-6.33,2.6-13.3,3.9-20.9,3.9s-14.57-1.3-20.9-3.9c-6.33-2.6-11.8-6.2-16.4-10.8-4.6-4.6-8.2-10.1-10.8-16.5-2.6-6.4-3.9-13.4-3.9-21s1.3-14.6,3.9-21,6.2-11.9,10.8-16.5c4.6-4.6,10.07-8.2,16.4-10.8,6.33-2.6,13.3-3.9,20.9-3.9Zm0,80.2c3.33,0,6.57-.63,9.7-1.9,3.13-1.27,5.9-3.1,8.3-5.5,2.4-2.4,4.3-5.33,5.7-8.8,1.4-3.47,2.1-7.4,2.1-11.8s-.7-8.33-2.1-11.8c-1.4-3.47-3.3-6.4-5.7-8.8-2.4-2.4-5.17-4.23-8.3-5.5-3.13-1.27-6.37-1.9-9.7-1.9s-6.73.63-9.8,1.9c-3.07,1.27-5.8,3.1-8.2,5.5s-4.3,5.33-5.7,8.8c-1.4,3.47-2.1,7.4-2.1,11.8s.7,8.33,2.1,11.8c1.4,3.47,3.3,6.4,5.7,8.8,2.4,2.4,5.13,4.23,8.2,5.5,3.07,1.27,6.33,1.9,9.8,1.9Z"/>
    <path class="cls-3" d="m944.8,87.6h26.2v43l-1.6,14h1.6c2.4-4.13,6.13-7.67,11.2-10.6,5.07-2.93,11.33-4.4,18.8-4.4,6.27,0,12.23,1.3,17.9,3.9,5.67,2.6,10.67,6.2,15,10.8,4.33,4.6,7.77,10.1,10.3,16.5,2.53,6.4,3.8,13.4,3.8,21s-1.27,14.6-3.8,21c-2.53,6.4-5.97,11.9-10.3,16.5-4.33,4.6-9.33,8.2-15,10.8-5.67,2.6-11.63,3.9-17.9,3.9-7.47,0-13.73-1.47-18.8-4.4-5.07-2.93-8.8-6.47-11.2-10.6h-1.6v11.8h-24.6V87.6Zm50.8,122.2c3.47,0,6.77-.67,9.9-2,3.13-1.33,5.9-3.2,8.3-5.6s4.33-5.33,5.8-8.8c1.47-3.47,2.2-7.33,2.2-11.6s-.73-8.13-2.2-11.6c-1.47-3.47-3.4-6.4-5.8-8.8-2.4-2.4-5.17-4.27-8.3-5.6-3.13-1.33-6.43-2-9.9-2s-6.77.63-9.9,1.9c-3.13,1.27-5.9,3.1-8.3,5.5-2.4,2.4-4.33,5.33-5.8,8.8-1.47,3.47-2.2,7.4-2.2,11.8s.73,8.33,2.2,11.8c1.47,3.47,3.4,6.4,5.8,8.8s5.17,4.23,8.3,5.5c3.13,1.27,6.43,1.9,9.9,1.9Z"/>
    <path class="cls-3" d="m1078.4,119.6c-2.27,0-4.43-.43-6.5-1.3-2.07-.87-3.87-2.07-5.4-3.6-1.54-1.53-2.73-3.3-3.6-5.3-.87-2-1.3-4.2-1.3-6.6s.43-4.6,1.3-6.6c.87-2,2.07-3.77,3.6-5.3,1.53-1.53,3.33-2.73,5.4-3.6,2.07-.87,4.23-1.3,6.5-1.3,4.67,0,8.67,1.63,12,4.9,3.33,3.27,5,7.23,5,11.9s-1.67,8.63-5,11.9c-3.33,3.27-7.33,4.9-12,4.9Zm-13,111.2v-98h26.2v98h-26.2Z"/>
    <path class="cls-3" d="m1115.6,230.8V87.6h26.2v143.2h-26.2Z"/>
    <path class="cls-3" d="m1256,207.2c-4.53,8-10.63,14.47-18.3,19.4-7.67,4.93-17.03,7.4-28.1,7.4-7.47,0-14.37-1.3-20.7-3.9-6.33-2.6-11.83-6.23-16.5-10.9-4.67-4.67-8.3-10.17-10.9-16.5-2.6-6.33-3.9-13.3-3.9-20.9,0-7.07,1.27-13.77,3.8-20.1,2.53-6.33,6.07-11.87,10.6-16.6,4.53-4.73,9.9-8.5,16.1-11.3,6.2-2.8,13.03-4.2,20.5-4.2,7.87,0,14.87,1.3,21,3.9,6.13,2.6,11.27,6.2,15.4,10.8,4.13,4.6,7.27,10.03,9.4,16.3,2.13,6.27,3.2,13.07,3.2,20.4v2.4c-.13.8-.2,1.53-.2,2.2-.13.67-.2,1.4-.2,2.2h-73.8c.53,4,1.63,7.43,3.3,10.3,1.67,2.87,3.73,5.27,6.2,7.2,2.46,1.93,5.17,3.33,8.1,4.2,2.93.87,5.93,1.3,9,1.3,6,0,10.97-1.37,14.9-4.1,3.93-2.73,7.03-6.17,9.3-10.3l21.8,10.8Zm-23.8-38c-.13-1.73-.7-3.67-1.7-5.8-1-2.13-2.47-4.13-4.4-6-1.93-1.87-4.33-3.4-7.2-4.6-2.87-1.2-6.3-1.8-10.3-1.8-5.6,0-10.53,1.6-14.8,4.8-4.27,3.2-7.27,7.67-9,13.4h47.4Z"/>
  </g>
  <path class="cls-3" d="m263.89,249.38c-4.84,11.18-10.57,21.47-17.2,30.93-9.05,12.9-16.45,21.83-22.16,26.78-8.85,8.14-18.33,12.31-28.48,12.54-7.29,0-16.08-2.07-26.31-6.28-10.27-4.19-19.7-6.26-28.33-6.26s-18.75,2.07-29.13,6.26c-10.39,4.21-18.77,6.4-25.17,6.62-9.74.41-19.44-3.87-29.13-12.88-6.18-5.39-13.92-14.64-23.18-27.73-9.94-13.98-18.11-30.2-24.51-48.69C3.44,210.7,0,191.36,0,172.64c0-21.45,4.63-39.94,13.92-55.44,7.29-12.45,17-22.27,29.14-29.48,12.15-7.21,25.27-10.88,39.4-11.12,7.73,0,17.87,2.39,30.48,7.09,12.57,4.72,20.64,7.11,24.17,7.11,2.64,0,11.61-2.8,26.8-8.37,14.37-5.17,26.5-7.31,36.43-6.47,26.92,2.17,47.15,12.79,60.6,31.91-24.08,14.59-35.99,35.02-35.75,61.24.22,20.42,7.62,37.41,22.18,50.9,6.6,6.26,13.97,11.1,22.16,14.54-1.78,5.16-3.65,10.09-5.65,14.83h0ZM202.15,6.4c0,16-5.85,30.95-17.5,44.78-14.06,16.44-31.07,25.94-49.52,24.44-.24-1.92-.37-3.94-.37-6.06,0-15.36,6.69-31.81,18.57-45.25,5.93-6.81,13.47-12.47,22.62-16.98,9.13-4.45,17.76-6.91,25.88-7.33.24,2.14.34,4.28.34,6.4h0Z"/>
  <g id="layer1">
    <path id="path2469" class="cls-3" d="m1731.02.02c-.24.06-.49.28-.81.46l-.69.35c-.63.36-1.02.75-.92.92l14.96,26.01c-27.23,13.36-45.68,39.51-45.68,69.5h174.22c0-30-18.46-56.15-45.68-69.5l14.96-26.01c.1-.17-.29-.56-.92-.92l-.69-.35c-.63-.36-1.17-.52-1.27-.35l-15.19,26.24c-11.57-5.15-24.57-8.06-38.32-8.06s-26.75,2.91-38.32,8.06l-15.19-26.24c-.05-.09-.22-.18-.46-.12Zm12.54,52.13c4.56,0,8.29,3.72,8.29,8.29,0,4.56-3.72,8.17-8.29,8.17s-8.29-3.61-8.29-8.17,3.72-8.29,8.29-8.29Zm82.85,0c4.56,0,8.29,3.72,8.29,8.29,0,4.56-3.72,8.17-8.29,8.17s-8.29-3.61-8.29-8.17,3.72-8.29,8.29-8.29Z"/>
    <path id="rect3241" class="cls-3" d="m1697.19,107.42v132.17c0,6.56,7.93,15.14,14.48,15.14h20.73v45.06c0,11.47,8.36,20.71,18.76,20.71s18.76-9.24,18.76-20.71v-45.06h30.15v45.06c0,11.47,8.36,20.71,18.76,20.71s18.87-9.24,18.87-20.71v-45.06h20.61c6.56,0,14.48-8.58,14.48-15.14V107.42h-175.6Z"/>
    <g id="g3258">
      <path id="rect3246" class="cls-2" d="m1668.29,104.63h0c10.37,0,18.77,9.27,18.77,20.71v78.41c0,11.44-8.41,20.71-18.77,20.71h0c-10.37,0-18.77-9.27-18.77-20.71v-78.41c0-11.44,8.41-20.71,18.77-20.71Z"/>
      <path id="rect3248" class="cls-2" d="m1901.72,104.63h0c10.37,0,18.77,9.27,18.77,20.71v78.41c0,11.44-8.41,20.71-18.77,20.71h0c-10.37,0-18.77-9.27-18.77-20.71v-78.41c0-11.44,8.41-20.71,18.77-20.71Z"/>
    </g>
  </g>
</svg>